<?xml version="1.0" encoding="UTF-8"?>
<!-- Generator: visioncortex VTracer 0.6.3 -->
<svg version="1.1" xmlns="http://www.w3.org/2000/svg" width="1280" height="1280">
<path d="M0 0 C3.85 0.01 7.7 -0 11.55 -0.01 C18.28 -0.01 25.02 -0.01 31.76 -0.01 C41.77 -0 51.79 -0 61.81 -0.01 C79.7 -0.02 97.6 -0.02 115.49 -0.01 C131.15 -0.01 146.81 -0.01 162.46 -0.01 C163.5 -0.01 164.54 -0.01 165.61 -0.01 C169.83 -0.01 174.05 -0.01 178.27 -0.01 C217.84 -0.02 257.4 -0.01 296.97 -0 C332.11 0.01 367.25 0.01 402.39 -0 C441.88 -0.01 481.38 -0.02 520.87 -0.01 C525.08 -0.01 529.29 -0.01 533.5 -0.01 C534.54 -0.01 535.58 -0.01 536.65 -0.01 C552.29 -0.01 567.94 -0.01 583.59 -0.02 C601.38 -0.02 619.18 -0.02 636.97 -0.01 C646.93 -0 656.88 -0 666.84 -0.01 C673.49 -0.01 680.15 -0.01 686.8 -0 C690.59 0 694.38 0 698.17 -0 C735.97 -0.07 735.97 -0.07 750.98 7.26 C750.98 7.92 750.98 8.58 750.98 9.26 C751.77 9.57 752.55 9.88 753.36 10.19 C755.98 11.26 755.98 11.26 757.98 12.26 C757.98 12.92 757.98 13.58 757.98 14.26 C758.97 14.59 759.96 14.92 760.98 15.26 C760.98 15.92 760.98 16.58 760.98 17.26 C761.64 17.26 762.3 17.26 762.98 17.26 C767.8 23.39 771.78 29.77 773.98 37.26 C774.29 38.18 774.29 38.18 774.6 39.11 C778.78 53.82 776.43 70.68 769.32 83.99 C767.39 87.28 765.38 90.28 762.98 93.26 C762.32 93.26 761.66 93.26 760.98 93.26 C760.65 94.25 760.32 95.24 759.98 96.26 C759.32 96.26 758.66 96.26 757.98 96.26 C757.98 96.92 757.98 97.58 757.98 98.26 C755.78 99.56 753.57 100.85 751.36 102.13 C750.43 102.68 750.43 102.68 749.49 103.24 C748.88 103.59 748.26 103.95 747.63 104.31 C747.08 104.64 746.52 104.96 745.95 105.3 C735.14 110.58 722.34 110.56 710.56 110.51 C709.28 110.51 708 110.51 706.68 110.52 C703.15 110.53 699.62 110.52 696.09 110.51 C692.24 110.51 688.39 110.52 684.54 110.52 C677.81 110.53 671.07 110.53 664.33 110.52 C654.31 110.51 644.29 110.52 634.27 110.52 C616.38 110.54 598.48 110.53 580.59 110.53 C564.92 110.52 549.26 110.52 533.6 110.52 C532.04 110.52 532.04 110.52 530.45 110.53 C526.23 110.53 522.01 110.53 517.79 110.53 C478.22 110.53 438.65 110.53 399.08 110.52 C363.93 110.51 328.78 110.51 293.64 110.52 C254.14 110.53 214.64 110.53 175.14 110.53 C170.93 110.53 166.72 110.53 162.5 110.52 C161.47 110.52 160.43 110.52 159.36 110.52 C143.71 110.52 128.06 110.52 112.41 110.53 C94.61 110.54 76.81 110.53 59.01 110.52 C49.06 110.52 39.1 110.52 29.14 110.52 C22.49 110.53 15.83 110.53 9.18 110.52 C5.39 110.51 1.6 110.51 -2.19 110.52 C-40.67 110.59 -40.67 110.59 -51.77 104.26 C-52.44 103.9 -53.11 103.55 -53.8 103.18 C-56.63 101.66 -59.34 100.04 -62.02 98.26 C-62.02 97.6 -62.02 96.94 -62.02 96.26 C-63.5 95.76 -63.5 95.76 -65.02 95.26 C-65.02 94.6 -65.02 93.94 -65.02 93.26 C-65.68 93.26 -66.34 93.26 -67.02 93.26 C-71.83 87.12 -75.81 80.74 -78.02 73.26 C-78.22 72.64 -78.42 72.03 -78.63 71.4 C-82.81 56.69 -80.46 39.83 -73.35 26.53 C-71.42 23.24 -69.41 20.23 -67.02 17.26 C-66.36 17.26 -65.7 17.26 -65.02 17.26 C-64.69 16.27 -64.36 15.28 -64.02 14.26 C-63.36 14.26 -62.7 14.26 -62.02 14.26 C-62.02 13.6 -62.02 12.94 -62.02 12.26 C-59.79 10.96 -57.56 9.67 -55.33 8.38 C-54.7 8.02 -54.08 7.65 -53.43 7.28 C-52.82 6.92 -52.2 6.57 -51.57 6.2 C-51.01 5.88 -50.45 5.55 -49.87 5.22 C-35.13 -2.43 -16.08 -0.03 0 0 Z " fill="#fe0000" transform="translate(292.01525624096394,584.743064891547)"/>
<path d="M0 0 C1.84 -0 3.68 -0.01 5.51 -0.02 C10.54 -0.03 15.57 -0.03 20.6 -0.03 C26.03 -0.02 31.47 -0.04 36.9 -0.05 C47.53 -0.07 58.17 -0.08 68.8 -0.07 C77.45 -0.07 86.1 -0.08 94.75 -0.08 C97.24 -0.09 99.73 -0.09 102.23 -0.09 C104.09 -0.09 104.09 -0.09 105.99 -0.09 C128.78 -0.11 151.57 -0.11 174.36 -0.11 C195.14 -0.1 215.92 -0.12 236.7 -0.15 C260.07 -0.18 283.44 -0.2 306.81 -0.2 C319.17 -0.2 331.54 -0.2 343.9 -0.23 C354.43 -0.25 364.96 -0.25 375.48 -0.23 C380.85 -0.22 386.22 -0.22 391.58 -0.24 C396.51 -0.26 401.43 -0.26 406.35 -0.23 C408.12 -0.23 409.89 -0.23 411.67 -0.25 C425.63 -0.35 437.3 1.83 449.85 8.39 C449.85 9.05 449.85 9.71 449.85 10.39 C450.84 10.39 451.83 10.39 452.85 10.39 C452.85 11.05 452.85 11.71 452.85 12.39 C453.43 12.64 454.01 12.89 454.6 13.14 C457.18 14.58 458.91 16.18 460.85 18.39 C460.85 19.05 460.85 19.71 460.85 20.39 C461.51 20.39 462.17 20.39 462.85 20.39 C462.85 21.38 462.85 22.37 462.85 23.39 C463.51 23.39 464.17 23.39 464.85 23.39 C465.82 25.56 466.78 27.72 467.73 29.89 C468.53 31.7 468.53 31.7 469.35 33.55 C472.16 40.4 473.27 46.94 473.29 54.33 C473.29 55.14 473.3 55.96 473.3 56.79 C473.14 65.48 470.77 73.27 467.85 81.39 C467.19 81.39 466.53 81.39 465.85 81.39 C465.73 82.16 465.61 82.92 465.48 83.71 C464.85 86.39 464.85 86.39 462.85 89.39 C462.19 89.39 461.53 89.39 460.85 89.39 C460.61 89.97 460.36 90.55 460.1 91.15 C455.14 100.07 444.53 105.08 435.17 108.01 C427.1 110.13 418.9 109.82 410.63 109.79 C408.78 109.79 406.94 109.8 405.09 109.81 C400.04 109.82 394.99 109.82 389.94 109.82 C384.48 109.81 379.02 109.83 373.56 109.84 C362.88 109.86 352.2 109.87 341.51 109.86 C332.83 109.86 324.14 109.87 315.45 109.87 C312.95 109.88 310.45 109.88 307.94 109.88 C306.7 109.88 305.45 109.88 304.16 109.88 C283.28 109.9 262.4 109.9 241.52 109.9 C240.86 109.9 240.19 109.9 239.51 109.9 C238.17 109.9 236.82 109.9 235.48 109.89 C214.61 109.89 193.74 109.9 172.86 109.94 C149.39 109.97 125.91 109.99 102.44 109.99 C90.02 109.98 77.6 109.99 65.18 110.01 C54.6 110.04 44.03 110.04 33.45 110.02 C28.06 110.01 22.67 110.01 17.28 110.03 C12.33 110.05 7.39 110.04 2.44 110.02 C0.66 110.02 -1.12 110.02 -2.9 110.04 C-21.19 110.17 -35.83 106.36 -49.46 93.46 C-60.93 81.45 -63.88 66.47 -63.53 50.34 C-62.95 39.64 -58.98 29.33 -53.15 20.39 C-52.49 20.39 -51.83 20.39 -51.15 20.39 C-50.9 19.82 -50.65 19.24 -50.4 18.64 C-48.96 16.07 -47.36 14.33 -45.15 12.39 C-44.49 12.39 -43.83 12.39 -43.15 12.39 C-43.15 11.73 -43.15 11.07 -43.15 10.39 C-41.05 9.28 -38.94 8.18 -36.83 7.08 C-35.97 6.62 -35.97 6.62 -35.09 6.15 C-23.73 0.31 -12.49 -0.04 0 0 Z " fill="#fe0000" transform="translate(275.1470184326172,851.6055908203125)"/>
<path d="M0 0 C1.85 -0 3.7 -0.01 5.55 -0.01 C10.61 -0.03 15.66 -0.02 20.72 -0.01 C26.19 -0 31.65 -0.01 37.11 -0.02 C47.81 -0.04 58.5 -0.03 69.2 -0.02 C77.89 -0.02 86.59 -0.02 95.28 -0.02 C96.52 -0.02 97.76 -0.02 99.03 -0.02 C101.55 -0.02 104.06 -0.02 106.58 -0.02 C129.48 -0.03 152.39 -0.02 175.3 -0.01 C196.19 0.01 217.08 0 237.98 -0.01 C261.47 -0.03 284.97 -0.03 308.46 -0.02 C310.97 -0.02 313.47 -0.02 315.98 -0.02 C317.83 -0.02 317.83 -0.02 319.72 -0.02 C328.4 -0.02 337.08 -0.02 345.76 -0.03 C356.34 -0.04 366.92 -0.03 377.51 -0.02 C382.9 -0.01 388.3 -0.01 393.7 -0.02 C398.64 -0.03 403.59 -0.02 408.53 -0.01 C410.31 -0 412.1 -0 413.88 -0.01 C431.57 -0.08 445.81 2.56 459.07 15.32 C469.59 26.47 474.05 39.51 473.94 54.76 C473.94 55.59 473.93 56.42 473.93 57.27 C473.73 67.89 470.64 76.11 465.63 85.38 C464.96 86.71 464.29 88.04 463.63 89.38 C462.97 89.38 462.31 89.38 461.63 89.38 C461.38 89.96 461.13 90.54 460.88 91.13 C459.45 93.71 457.85 95.44 455.63 97.38 C454.97 97.38 454.31 97.38 453.63 97.38 C453.63 98.04 453.63 98.7 453.63 99.38 C443.21 105.48 432.98 109.71 420.72 109.64 C419.59 109.65 419.59 109.65 418.43 109.65 C415.9 109.66 413.37 109.66 410.84 109.66 C409.01 109.66 407.17 109.66 405.34 109.67 C400.3 109.69 395.27 109.69 390.23 109.69 C384.8 109.69 379.36 109.7 373.93 109.71 C362.05 109.74 350.17 109.74 338.29 109.75 C330.86 109.75 323.44 109.76 316.02 109.77 C295.46 109.78 274.91 109.8 254.35 109.8 C253.03 109.8 251.72 109.8 250.36 109.8 C248.36 109.81 246.37 109.81 244.37 109.81 C242.36 109.81 240.36 109.81 238.35 109.81 C237.36 109.81 237.36 109.81 236.35 109.81 C215.55 109.81 194.75 109.83 173.95 109.87 C150.57 109.91 127.18 109.93 103.8 109.93 C91.42 109.93 79.05 109.94 66.67 109.97 C56.14 110 45.6 110 35.06 109.99 C29.68 109.98 24.31 109.98 18.94 110 C14.01 110.02 9.08 110.02 4.16 110 C2.38 110 0.61 110 -1.17 110.02 C-15.14 110.12 -26.81 107.95 -39.37 101.38 C-39.37 100.72 -39.37 100.06 -39.37 99.38 C-40.36 99.38 -41.35 99.38 -42.37 99.38 C-42.37 98.72 -42.37 98.06 -42.37 97.38 C-43.86 96.89 -43.86 96.89 -45.37 96.38 C-45.37 95.72 -45.37 95.06 -45.37 94.38 C-46.01 94.11 -46.65 93.84 -47.31 93.57 C-49.37 92.38 -49.37 92.38 -50.37 89.38 C-51.03 89.38 -51.69 89.38 -52.37 89.38 C-52.37 88.39 -52.37 87.4 -52.37 86.38 C-53.03 86.38 -53.69 86.38 -54.37 86.38 C-55.34 84.22 -56.29 82.05 -57.25 79.88 C-57.78 78.67 -58.31 77.47 -58.86 76.22 C-61.74 69.19 -62.73 62.65 -62.68 55.07 C-62.68 54.23 -62.67 53.4 -62.67 52.54 C-62.55 46.11 -61.71 40.41 -59.37 34.38 C-59.08 33.6 -58.79 32.81 -58.49 32 C-53.2 18.92 -42.99 9.32 -30.37 3.38 C-20.35 -0.16 -10.46 -0.04 0 0 Z " fill="#fe0000" transform="translate(594.3701171875,318.6190490722656)"/>
</svg>
